<?xml version="1.0" encoding="utf-8"?>
<!-- Generator: Adobe Illustrator 22.1.0, SVG Export Plug-In . SVG Version: 6.00 Build 0)  -->
<svg version="1.1" id="Layer_1" xmlns="http://www.w3.org/2000/svg" xmlns:xlink="http://www.w3.org/1999/xlink" x="0px" y="0px"
	 viewBox="0 0 250.5 250.5" style="enable-background:new 0 0 250.5 250.5;" xml:space="preserve">
<style type="text/css">
	.st0{fill:#FFFFFF;}
</style>
<g>
	<g>
		<g>
			<g>
				<polygon class="st0" points="226.6,54.5 124.4,173.3 84.3,109.1 124.4,131 				"/>
			</g>
		</g>
	</g>
	<path class="st0" d="M234.8,118.4l-22.9-20.3c-0.4-0.4-0.7-0.7-1.1-1.1l-4.3-3.8l-24,27.9v3c0,37-22.9,70.3-57.5,83.5
		c-17.3-6.6-31.7-18.2-41.7-32.8c-10-14.6-15.8-32.1-15.8-50.7V87.7l9.4-2.7c30.5-8.8,62.8-9.1,93.4-0.8l14-10.5l-13-11.5
		l-23.4-20.7c-13.1-11.6-32.8-11.6-45.9,0L78.7,62.2l-11,9.7v-7.8c0-5.3-4.3-9.6-9.6-9.6H41.9c-5.3,0-9.6,4.3-9.6,9.6v39.1
		l-17.1,15.2c-6.6,5.9-2.5,16.9,6.4,16.9h10.7V196c0,12,9.7,21.8,21.8,21.8h141.7c12,0,21.8-9.8,21.8-21.8v-60.7h10.8
		C237.3,135.3,241.4,124.3,234.8,118.4z"/>
</g>
</svg>
